<svg width="56" height="56" viewBox="0 0 56 56" fill="none" xmlns="http://www.w3.org/2000/svg">
<g clip-path="url(#clip0_1477_3619)">
<path d="M16.334 30.3334H14.0007C11.4233 30.3334 9.33398 32.4227 9.33398 35V42C9.33398 44.5774 11.4233 46.6667 14.0007 46.6667H16.334C18.9113 46.6667 21.0007 44.5774 21.0007 42V35C21.0007 32.4227 18.9113 30.3334 16.334 30.3334Z" stroke="black" stroke-width="2" stroke-linecap="round" stroke-linejoin="round"/>
<path d="M42 30.3334H39.6667C37.0893 30.3334 35 32.4227 35 35V42C35 44.5774 37.0893 46.6667 39.6667 46.6667H42C44.5773 46.6667 46.6667 44.5774 46.6667 42V35C46.6667 32.4227 44.5773 30.3334 42 30.3334Z" stroke="black" stroke-width="2" stroke-linecap="round" stroke-linejoin="round"/>
<path d="M9.33398 35V28C9.33398 23.0493 11.3006 18.3014 14.8013 14.8007C18.302 11.3 23.0499 9.33337 28.0007 9.33337C32.9514 9.33337 37.6993 11.3 41.2 14.8007C44.7007 18.3014 46.6673 23.0493 46.6673 28V35" stroke="black" stroke-width="2" stroke-linecap="round" stroke-linejoin="round"/>
</g>
<defs>
<clipPath id="clip0_1477_3619">
<rect width="56" height="56" fill="white"/>
</clipPath>
</defs>
</svg>
